<svg width="481" height="58" viewBox="0 0 481 58" fill="none" xmlns="http://www.w3.org/2000/svg">
<path d="M13.1092 57.425C11.8614 57.425 10.8499 56.4134 10.8499 55.1656V12.6958C10.8499 11.448 9.83838 10.4365 8.5906 10.4365H2.25931C1.01153 10.4365 0 9.42498 0 8.1772V2.26321C0 1.01543 1.01153 0.00390625 2.25931 0.00390625H30.9581C32.2059 0.00390625 33.2174 1.01543 33.2174 2.26322V8.1772C33.2174 9.42498 32.2059 10.4365 30.9581 10.4365H24.6268C23.379 10.4365 22.3675 11.448 22.3675 12.6958V55.1656C22.3675 56.4134 21.356 57.425 20.1082 57.425H13.1092Z" fill="#31654E"/>
<path d="M63.3899 57.425C62.3761 57.425 61.4864 56.7496 61.2138 55.7731L56.5442 39.0462C56.2716 38.0697 55.3819 37.3944 54.3681 37.3944H52.1663C50.9185 37.3944 49.907 38.4059 49.907 39.6537V55.1656C49.907 56.4134 48.8954 57.425 47.6477 57.425H40.6487C39.4009 57.425 38.3894 56.4134 38.3894 55.1656V2.26322C38.3894 1.01543 39.4009 0.00390625 40.6487 0.00390625H57.7523C61.8697 0.00390625 64.9577 0.699412 67.0164 2.09042C69.1308 3.48144 70.5496 5.4845 71.2729 8.09961C71.9963 10.7147 72.3579 14.2201 72.3579 18.6157C72.3579 22.7887 71.9684 26.2384 71.1895 28.9648C70.6287 31.0784 69.5998 32.7907 68.1028 34.1017C67.3236 34.7841 66.8981 35.8343 67.2056 36.8233L72.699 54.495C73.1511 55.9491 72.0644 57.425 70.5415 57.425H63.3899ZM54.9981 27.4625C56.8342 27.4625 58.1418 27.2678 58.9207 26.8783C59.6997 26.4332 60.2005 25.6542 60.423 24.5414C60.7012 23.3729 60.8403 21.4255 60.8403 18.6991C60.8403 16.0284 60.7012 14.1366 60.423 13.0238C60.2005 11.911 59.6997 11.1598 58.9207 10.7704C58.1418 10.3252 56.8342 10.1027 54.9981 10.1027H52.1663C50.9185 10.1027 49.907 11.1142 49.907 12.362V25.2032C49.907 26.451 50.9185 27.4625 52.1663 27.4625H54.9981Z" fill="#31654E"/>
<path d="M81.8901 57.425C80.6423 57.425 79.6308 56.4134 79.6308 55.1656V2.26322C79.6308 1.01543 80.6423 0.00390625 81.8901 0.00390625H105.247C106.495 0.00390625 107.507 1.01543 107.507 2.26322V7.84335C107.507 9.09114 106.495 10.1027 105.247 10.1027H93.4077C92.1599 10.1027 91.1483 11.1142 91.1483 12.362V21.1136C91.1483 22.3614 92.1599 23.3729 93.4077 23.3729H102.994C104.242 23.3729 105.253 24.3845 105.253 25.6322V31.2124C105.253 32.4602 104.242 33.4717 102.994 33.4717H93.4077C92.1599 33.4717 91.1483 34.4832 91.1483 35.731V45.0669C91.1483 46.3147 92.1599 47.3262 93.4077 47.3262H105.247C106.495 47.3262 107.507 48.3377 107.507 49.5855V55.1656C107.507 56.4134 106.495 57.425 105.247 57.425H81.8901Z" fill="#31654E"/>
<path d="M141.749 57.425C140.665 57.425 139.734 56.6551 139.53 55.5906L137.979 47.4914C137.775 46.4268 136.844 45.657 135.76 45.657H126.642C125.558 45.657 124.627 46.4268 124.423 47.4914L122.872 55.5906C122.669 56.6551 121.737 57.425 120.653 57.425H113.86C112.429 57.425 111.358 56.1108 111.648 54.709L122.566 1.80653C122.783 0.756895 123.707 0.00390625 124.779 0.00390625H137.873C138.945 0.00390625 139.869 0.756898 140.086 1.80653L151.005 54.709C151.294 56.1108 150.224 57.425 148.792 57.425H141.749ZM131.495 11.1007C131.47 10.9579 131.346 10.8538 131.201 10.8538C131.056 10.8538 130.932 10.9574 130.906 11.0998L126.926 33.063C126.675 34.4495 127.74 35.7251 129.149 35.7251H133.178C134.584 35.7251 135.649 34.4546 135.403 33.0702L131.495 11.1007Z" fill="#31654E"/>
<path d="M163.485 57.425C162.238 57.425 161.226 56.4134 161.226 55.1656V12.6958C161.226 11.448 160.215 10.4365 158.967 10.4365H152.635C151.388 10.4365 150.376 9.42498 150.376 8.1772V2.26321C150.376 1.01543 151.388 0.00390625 152.635 0.00390625H181.334C182.582 0.00390625 183.594 1.01543 183.594 2.26322V8.1772C183.594 9.42498 182.582 10.4365 181.334 10.4365H175.003C173.755 10.4365 172.744 11.448 172.744 12.6958V55.1656C172.744 56.4134 171.732 57.425 170.484 57.425H163.485Z" fill="#31654E"/>
<path d="M278.013 57.425C277.073 57.425 276.23 56.8419 275.899 55.9614L267.893 34.6858C267.618 33.9554 266.919 33.4717 266.139 33.4717C265.103 33.4717 264.264 34.3108 264.264 35.3459V55.1656C264.264 56.4134 263.253 57.425 262.005 57.425H255.006C253.758 57.425 252.747 56.4134 252.747 55.1656V2.26322C252.747 1.01543 253.758 0.00390625 255.006 0.00390625H262.005C263.253 0.00390625 264.264 1.01543 264.264 2.26322V21.2309C264.264 22.2756 265.111 23.1226 266.156 23.1226C266.929 23.1226 267.624 22.6521 267.912 21.9345L276.131 1.42282C276.475 0.565747 277.305 0.00390625 278.229 0.00390625H285.106C286.733 0.00390625 287.827 1.67171 287.178 3.16383L276.995 26.591C276.753 27.1484 276.746 27.7798 276.975 28.3428L287.537 54.3145C288.141 55.8003 287.048 57.425 285.444 57.425H278.013Z" fill="#31654E"/>
<path d="M296.084 57.425C294.837 57.425 293.825 56.4134 293.825 55.1656V2.26322C293.825 1.01543 294.837 0.00390625 296.084 0.00390625H319.442C320.689 0.00390625 321.701 1.01543 321.701 2.26322V7.84335C321.701 9.09114 320.689 10.1027 319.442 10.1027H307.602C306.354 10.1027 305.343 11.1142 305.343 12.362V21.1136C305.343 22.3614 306.354 23.3729 307.602 23.3729H317.188C318.436 23.3729 319.448 24.3845 319.448 25.6322V31.2124C319.448 32.4602 318.436 33.4717 317.188 33.4717H307.602C306.354 33.4717 305.343 34.4832 305.343 35.731V45.0669C305.343 46.3147 306.354 47.3262 307.602 47.3262H319.442C320.689 47.3262 321.701 48.3377 321.701 49.5855V55.1656C321.701 56.4134 320.689 57.425 319.442 57.425H296.084Z" fill="#31654E"/>
<path d="M353.954 57.425C352.94 57.425 352.051 56.7496 351.778 55.7731L347.108 39.0462C346.836 38.0697 345.946 37.3944 344.932 37.3944H342.731C341.483 37.3944 340.471 38.4059 340.471 39.6537V55.1656C340.471 56.4134 339.46 57.425 338.212 57.425H331.213C329.965 57.425 328.954 56.4134 328.954 55.1656V2.26322C328.954 1.01543 329.965 0.00390625 331.213 0.00390625H348.317C352.434 0.00390625 355.522 0.699412 357.581 2.09042C359.695 3.48144 361.114 5.4845 361.837 8.09961C362.561 10.7147 362.922 14.2201 362.922 18.6157C362.922 22.7887 362.533 26.2384 361.754 28.9648C361.193 31.0784 360.164 32.7907 358.667 34.1017C357.888 34.7841 357.462 35.8343 357.77 36.8233L363.263 54.495C363.715 55.9491 362.629 57.425 361.106 57.425H353.954ZM345.562 27.4625C347.398 27.4625 348.706 27.2678 349.485 26.8783C350.264 26.4332 350.765 25.6542 350.987 24.5414C351.266 23.3729 351.405 21.4255 351.405 18.6991C351.405 16.0284 351.266 14.1366 350.987 13.0238C350.765 11.911 350.264 11.1598 349.485 10.7704C348.706 10.3252 347.398 10.1027 345.562 10.1027H342.731C341.483 10.1027 340.471 11.1142 340.471 12.362V25.2032C340.471 26.451 341.483 27.4625 342.731 27.4625H345.562Z" fill="#31654E"/>
<path d="M397.184 57.425C396.101 57.425 395.169 56.6551 394.965 55.5906L393.415 47.4914C393.211 46.4268 392.28 45.657 391.196 45.657H382.078C380.994 45.657 380.063 46.4268 379.859 47.4914L378.308 55.5906C378.104 56.6551 377.173 57.425 376.089 57.425H369.296C367.865 57.425 366.794 56.1108 367.083 54.709L378.002 1.80653C378.219 0.756895 379.143 0.00390625 380.215 0.00390625H393.309C394.381 0.00390625 395.305 0.756899 395.522 1.80653L406.441 54.709C406.73 56.1108 405.659 57.425 404.228 57.425H397.184ZM386.931 11.1007C386.906 10.9579 386.781 10.8538 386.636 10.8538C386.492 10.8538 386.368 10.9574 386.342 11.0998L382.362 33.063C382.111 34.4495 383.176 35.7251 384.585 35.7251H388.614C390.02 35.7251 391.085 34.4546 390.838 33.0702L386.931 11.1007Z" fill="#31654E"/>
<path d="M414.266 57.425C413.018 57.425 412.007 56.4134 412.007 55.1656V2.26322C412.007 1.01543 413.018 0.00390625 414.266 0.00390625H421.265C422.513 0.00390625 423.525 1.01543 423.525 2.26322V44.733C423.525 45.9808 424.536 46.9923 425.784 46.9923H435.787C437.035 46.9923 438.047 48.0039 438.047 49.2517V55.1656C438.047 56.4134 437.035 57.425 435.787 57.425H414.266Z" fill="#31654E"/>
<path d="M470.62 57.425C469.536 57.425 468.605 56.6552 468.401 55.5906L466.85 47.4914C466.646 46.4268 465.715 45.657 464.631 45.657H455.514C454.43 45.657 453.499 46.4268 453.295 47.4914L451.744 55.5906C451.54 56.6551 450.609 57.425 449.525 57.425H442.732C441.3 57.425 440.23 56.1108 440.519 54.709L451.438 1.80653C451.655 0.756898 452.579 0.00390625 453.651 0.00390625H466.745C467.817 0.00390625 468.741 0.756898 468.958 1.80653L479.876 54.709C480.166 56.1108 479.095 57.425 477.664 57.425H470.62ZM460.367 11.1007C460.341 10.9579 460.217 10.8538 460.072 10.8538C459.927 10.8538 459.803 10.9574 459.778 11.0998L455.798 33.063C455.546 34.4495 456.612 35.7251 458.021 35.7251H462.05C463.456 35.7251 464.52 34.4546 464.274 33.0702L460.367 11.1007Z" fill="#31654E"/>
<path d="M235.177 57.425C234.27 57.425 233.451 56.8829 233.097 56.0483L220.379 26.0826C220.348 26.0084 220.275 25.9602 220.194 25.9602C220.083 25.9602 219.993 26.0502 219.993 26.1611V55.1656C219.993 56.4134 218.982 57.425 217.734 57.425H211.319C210.072 57.425 209.06 56.4134 209.06 55.1656V2.26322C209.06 1.01543 210.072 0.00390625 211.319 0.00390625H218.67C219.574 0.00390625 220.391 0.542854 220.747 1.37395L232.531 28.8958C232.57 28.9883 232.661 29.0483 232.762 29.0483C232.901 29.0483 233.013 28.9357 233.013 28.7968V2.26322C233.013 1.01543 234.025 0.00390625 235.273 0.00390625H241.771C243.019 0.00390625 244.03 1.01543 244.03 2.26322V55.1656C244.03 56.4134 243.019 57.425 241.771 57.425H235.177Z" fill="#CE9D66"/>
<path d="M191.182 57.4258C189.934 57.4258 188.923 56.4143 188.923 55.1665V18.4527C188.923 17.2049 189.934 16.1934 191.182 16.1934H197.96C199.208 16.1934 200.219 17.2049 200.219 18.4527V55.1665C200.219 56.4143 199.208 57.4258 197.96 57.4258H191.182Z" fill="#CE9D66"/>
<path d="M191.182 10.7317C189.934 10.7317 188.923 9.7202 188.923 8.47241V2.25931C188.923 1.01153 189.934 0 191.182 0H197.96C199.208 0 200.219 1.01153 200.219 2.25931V8.47241C200.219 9.7202 199.208 10.7317 197.96 10.7317H191.182Z" fill="#CE9D66"/>
</svg>
